<?xml version="1.0" encoding="UTF-8"?>
<svg version="1.1" xmlns="http://www.w3.org/2000/svg" width="956" height="948">
<path d="M0 0 C315.48 0 630.96 0 956 0 C956 312.84 956 625.68 956 948 C640.52 948 325.04 948 0 948 C0 635.16 0 322.32 0 0 Z " fill="#FEFEFE" transform="translate(0,0)"/>
<path d="M0 0 C0.99 0 1.98 0 3 0 C3 40.59 3 81.18 3 123 C-66.96 123 -136.92 123 -209 123 C-206.51630551 118.03261102 -203.42714806 115.14792344 -199.125 111.6875 C-195.92389863 109.0788904 -193.33822204 106.05315192 -190.66015625 102.921875 C-187.88070734 99.70425414 -185.00660538 96.76819884 -181.625 94.1875 C-178.6247194 91.68726617 -176.22811578 88.9117063 -173.69140625 85.953125 C-170.73829102 82.54306123 -167.63931537 79.51423193 -164.125 76.6875 C-160.81902154 74.01531015 -158.20544849 70.85168386 -155.515625 67.57421875 C-155.01546875 67.05472656 -154.5153125 66.53523438 -154 66 C-153.34 66 -152.68 66 -152 66 C-151.79375 65.443125 -151.5875 64.88625 -151.375 64.3125 C-149.85406579 61.7545652 -148.02467021 60.31278817 -145.7109375 58.484375 C-143.08326355 56.20465787 -140.91830507 53.56341035 -138.6640625 50.921875 C-136.55865264 48.49027488 -134.30456306 46.24227757 -132 44 C-131.278125 43.236875 -130.55625 42.47375 -129.8125 41.6875 C-128 40 -128 40 -126 40 C-125.34 38.68 -124.68 37.36 -124 36 C-123.34 36 -122.68 36 -122 36 C-121.70867187 36.556875 -121.41734375 37.11375 -121.1171875 37.6875 C-116.45831307 46.36062473 -110.75772629 53.43596195 -104.04638672 60.61254883 C-101.71249632 63.10908404 -99.45998979 65.63556813 -97.30859375 68.2890625 C-95.23514564 71.06415762 -95.23514564 71.06415762 -92.625 72.25 C-89.2158077 71.92531502 -87.70876803 70.35684427 -85.26953125 68.06640625 C-82.38516376 65.44019213 -79.33143444 63.07650049 -76.25 60.6875 C-71.93531497 57.32145385 -67.65755028 53.92228529 -63.4375 50.4375 C-58.95504789 46.74606885 -54.38437597 43.19020568 -49.77197266 39.66430664 C-44.78711097 35.85030091 -39.88601111 31.93929632 -35 28 C-29.35914764 23.4666694 -23.69401731 18.96627114 -18 14.5 C-8.69458523 7.59105171 -8.69458523 7.59105171 0 0 Z " fill="#555659" transform="translate(409,415)"/>
<path d="M0 0 C0.99 0 1.98 0 3 0 C3 40.59 3 81.18 3 123 C-66.96 123 -136.92 123 -209 123 C-208.505 122.01 -208.505 122.01 -208 121 C-140.35 121 -72.7 121 -3 121 C-6.63 120.01 -10.26 119.02 -14 118 C-14 117.34 -14 116.68 -14 116 C-15.299375 115.79375 -16.59875 115.5875 -17.9375 115.375 C-23.0261171 114.35582061 -27.85594395 112.82245218 -32.75 111.125 C-33.47050537 110.88056152 -34.19101074 110.63612305 -34.93334961 110.38427734 C-39.44325597 108.78077823 -43.03830111 106.7346727 -47 104 C-48.7254759 103.21455938 -50.47532377 102.47936453 -52.25 101.8125 C-56.94936709 100.02531646 -56.94936709 100.02531646 -59 99 C-59 98.34 -59 97.68 -59 97 C-59.78375 96.79375 -60.5675 96.5875 -61.375 96.375 C-74.03998677 91.5710395 -84.0343898 81.88052944 -94 73 C-93.39929688 72.88398438 -92.79859375 72.76796875 -92.1796875 72.6484375 C-89.27880819 71.7854519 -87.52742679 69.98511152 -85.3046875 67.99609375 C-82.36742745 65.45212784 -79.31536723 63.07432791 -76.25 60.6875 C-71.93606338 57.32045568 -67.65758767 53.92231617 -63.4375 50.4375 C-58.95504789 46.74606885 -54.38437597 43.19020568 -49.77197266 39.66430664 C-44.78711097 35.85030091 -39.88601111 31.93929632 -35 28 C-29.35914764 23.4666694 -23.69401731 18.96627114 -18 14.5 C-8.69458523 7.59105171 -8.69458523 7.59105171 0 0 Z " fill="#919E9E" transform="translate(409,415)"/>
<path d="M0 0 C0.66 0 1.32 0 2 0 C2.29132813 0.556875 2.58265625 1.11375 2.8828125 1.6875 C7.86690162 10.96605585 14.1778952 18.43050729 21.328125 26.10546875 C23.50774966 28.4667288 25.61189851 30.86081476 27.6875 33.3125 C31.15291541 37.28227165 34.93043046 40.66019172 39 44 C39.50450684 44.42216797 40.00901367 44.84433594 40.52880859 45.27929688 C48.26755666 51.73089275 55.70300181 56.9644898 65 61 C65 61.66 65 62.32 65 63 C65.804375 63.2475 66.60875 63.495 67.4375 63.75 C72.40090931 65.49154713 77.14614143 67.66593698 81.90942383 69.89257812 C87.83443009 72.61125791 93.86521852 74.74030399 100.0625 76.75 C101.02349609 77.06582031 101.98449219 77.38164063 102.97460938 77.70703125 C105.31507203 78.47554137 107.65683509 79.23977744 110 80 C110 80.66 110 81.32 110 82 C110.73605469 82.13277344 111.47210938 82.26554688 112.23046875 82.40234375 C113.20628906 82.57894531 114.18210937 82.75554687 115.1875 82.9375 C116.63189453 83.19853516 116.63189453 83.19853516 118.10546875 83.46484375 C120.74239972 83.9523735 123.3719905 84.46671105 126 85 C126 85.33 126 85.66 126 86 C117.63651582 86.09335451 109.27325527 86.16409229 100.90937614 86.20724869 C97.02419287 86.22797876 93.1393703 86.25602313 89.25439453 86.30175781 C85.49365912 86.34574456 81.73326699 86.36924619 77.97229385 86.37950897 C76.54919161 86.386807 75.12610465 86.40105308 73.7031517 86.42292023 C61.54799424 86.60200481 50.85067509 84.69404845 40 79 C40 78.34 40 77.68 40 77 C39.10925781 76.75121094 38.21851563 76.50242187 37.30078125 76.24609375 C24.34540944 71.35524924 12.82515018 54.31236218 7.13525391 42.15185547 C2.76104085 32.20687361 0.90711182 23.41837319 0.4375 12.625 C0.37272461 11.23474609 0.37272461 11.23474609 0.30664062 9.81640625 C0.20123814 7.54439706 0.09911394 5.27229075 0 3 C-0.66 2.67 -1.32 2.34 -2 2 C-1.34 1.34 -0.68 0.68 0 0 Z " fill="#E46855" transform="translate(285,451)"/>
<path d="M0 0 C0 17.82 0 35.64 0 54 C-2.64 54 -5.28 54 -8 54 C-8 52.68 -8 51.36 -8 50 C-8.886875 50.66 -9.77375 51.32 -10.6875 52 C-16.09273803 55.09973854 -21.96987153 54.62246487 -28 54 C-33.52795885 52.32186963 -36.21777054 48.877215 -39 44 C-40.94202557 38.1739233 -40.57180841 32.05178313 -38.9375 26.1875 C-36.23587814 21.74289629 -32.6788042 18.3394021 -28 16 C-25.94234604 15.8244519 -23.87713536 15.73264162 -21.8125 15.6875 C-20.70519531 15.65011719 -19.59789062 15.61273438 -18.45703125 15.57421875 C-15 16 -15 16 -8 20 C-8 14.06 -8 8.12 -8 2 C-4 0 -4 0 0 0 Z " fill="#5F6063" transform="translate(586,413)"/>
<path d="M0 0 C5.34088128 3.83150179 10.16305558 7.54995495 11.5234375 14.26171875 C11.72436178 20.91540361 10.96002684 26.67345808 6.875 32.0625 C1.50403282 37.43346718 -4.17167708 38.26254373 -11.46484375 38.5234375 C-14.125 38.0625 -14.125 38.0625 -21.125 34.0625 C-21.125 40.3325 -21.125 46.6025 -21.125 53.0625 C-23.765 53.0625 -26.405 53.0625 -29.125 53.0625 C-29.125 36.5625 -29.125 20.0625 -29.125 3.0625 C-25.125 1.0625 -25.125 1.0625 -21.125 1.0625 C-21.125 2.0525 -21.125 3.0425 -21.125 4.0625 C-20.465 4.0625 -19.805 4.0625 -19.125 4.0625 C-18.795 3.0725 -18.465 2.0825 -18.125 1.0625 C-12.80382591 -2.19886476 -5.77951641 -1.73385492 0 0 Z " fill="#606165" transform="translate(556.125,499.9375)"/>
<path d="M0 0 C3.76372144 2.90863625 6.20686475 5.66163184 7 10.4375 C8.1603139 23.8904148 8.1603139 23.8904148 4 29.4375 C-0.82074419 34.24507275 -4.62219424 35.59478413 -11.375 35.6875 C-12.49648438 35.71328125 -13.61796875 35.7390625 -14.7734375 35.765625 C-18 35.4375 -18 35.4375 -23 32.4375 C-23.33 38.3775 -23.66 44.3175 -24 50.4375 C-26.64 50.4375 -29.28 50.4375 -32 50.4375 C-32 33.9375 -32 17.4375 -32 0.4375 C-27 -1.5625 -27 -1.5625 -24 -1.5625 C-24 -0.5725 -24 0.4175 -24 1.4375 C-23.13375 0.7259375 -23.13375 0.7259375 -22.25 0 C-15.84135575 -4.4504474 -6.46343929 -3.9775011 0 0 Z " fill="#5F6063" transform="translate(750,431.5625)"/>
<path d="M0 0 C1.92578125 1.09765625 1.92578125 1.09765625 4.80078125 3.09765625 C5.13078125 2.10765625 5.46078125 1.11765625 5.80078125 0.09765625 C8.77078125 0.09765625 11.74078125 0.09765625 14.80078125 0.09765625 C14.82543053 5.34871067 14.84361693 10.5997317 14.85571289 15.85083008 C14.86075343 17.63859646 14.86758579 19.4263587 14.8762207 21.21411133 C14.88829855 23.77816793 14.89401219 26.34217022 14.8984375 28.90625 C14.90359879 29.71041855 14.90876007 30.5145871 14.91407776 31.34312439 C14.9142734 33.2616734 14.86280108 35.18010993 14.80078125 37.09765625 C13.80078125 38.09765625 13.80078125 38.09765625 11.953125 38.1953125 C9.90234375 38.16276042 7.8515625 38.13020833 5.80078125 38.09765625 C5.80078125 36.77765625 5.80078125 35.45765625 5.80078125 34.09765625 C5.05828125 34.57203125 4.31578125 35.04640625 3.55078125 35.53515625 C-1.7379747 38.54013122 -7.21855451 38.75294508 -13.19921875 38.09765625 C-18.57543003 36.28835438 -22.04718115 32.64029868 -25.19921875 28.09765625 C-27.21886976 22.50477652 -26.99586049 15.31986741 -25.01171875 9.78515625 C-19.24679467 1.23716537 -10.2890625 -4.22162245 0 0 Z " fill="#636367" transform="translate(504.19921875,499.90234375)"/>
<path d="M0 0 C4.70627018 0.02689297 8.2150097 1.94591003 12.1875 4.3125 C12.1875 3.3225 12.1875 2.3325 12.1875 1.3125 C14.8275 1.3125 17.4675 1.3125 20.1875 1.3125 C20.1875 13.5225 20.1875 25.7325 20.1875 38.3125 C17.8775 38.3125 15.5675 38.3125 13.1875 38.3125 C13.1875 36.9925 13.1875 35.6725 13.1875 34.3125 C11.7953125 35.2715625 11.7953125 35.2715625 10.375 36.25 C5.3019997 39.53252961 1.08115232 39.9714753 -4.8125 39.3125 C-9.78866949 37.92361697 -13.02134234 36.28166813 -16.3125 32.25 C-19.60268399 25.80672302 -19.3940803 19.42252391 -18.8125 12.3125 C-16.56735108 7.39044275 -13.15462048 4.41401463 -8.8125 1.3125 C-5.84382788 0.29690164 -3.14353042 0.25766643 0 0 Z " fill="#5E5E62" transform="translate(633.8125,498.6875)"/>
<path d="M0 0 C4.88445291 2.89411451 7.7050733 6.34835507 9.9375 11.625 C10.89875119 17.39250715 10.62068816 22.7295296 8.4375 28.1875 C5.15461218 32.01753579 1.35074812 34.77891729 -3.4375 36.375 C-18.39102523 37.52093598 -18.39102523 37.52093598 -24.4375 32.375 C-28.23662709 28.2349256 -29.75808423 24.4992944 -29.9375 18.875 C-29.62281886 13.04129574 -28.84838468 7.98536686 -24.78515625 3.5859375 C-17.93013882 -2.52995543 -8.54292395 -3.92909289 0 0 Z " fill="#606164" transform="translate(674.4375,430.625)"/>
<path d="M0 0 C5.04723156 3.02833893 7.47561116 6.57622232 10.125 11.875 C10.125 14.845 10.125 17.815 10.125 20.875 C0.555 20.875 -9.015 20.875 -18.875 20.875 C-17.37923438 25.70742088 -17.37923438 25.70742088 -14.8125 27.6875 C-7.98998928 30.44553625 -0.01158207 28.70933945 7.125 27.875 C7.125 30.185 7.125 32.495 7.125 34.875 C2.41183636 36.72344386 -1.86221544 37.21105632 -6.875 37.1875 C-7.90367187 37.21166992 -7.90367187 37.21166992 -8.953125 37.23632812 C-13.68534791 37.2408436 -16.89281918 36.42060765 -20.875 33.875 C-22.73828125 31.9375 -22.73828125 31.9375 -24.1875 29.875 C-24.67863281 29.194375 -25.16976563 28.51375 -25.67578125 27.8125 C-28.71073761 22.90911774 -28.53008301 17.44320556 -27.875 11.875 C-25.90675037 6.40253023 -22.22461582 2.53943532 -17.18359375 -0.28125 C-11.66343769 -2.29876897 -5.50304029 -1.99020629 0 0 Z " fill="#5F6064" transform="translate(531.875,430.125)"/>
<path d="M0 0 C1.09183594 -0.00515625 2.18367187 -0.0103125 3.30859375 -0.015625 C6.67951578 0.25955231 9.41125625 1.05224219 12.5625 2.25 C12.5625 4.23 12.5625 6.21 12.5625 8.25 C7.54523458 9.47623465 2.842383 9.15191001 -2.28125 8.89453125 C-6.14993905 9.33023757 -7.69045049 10.55769242 -10.4375 13.25 C-12.1914509 16.7579018 -11.61240742 20.67583324 -11.1875 24.5 C-10.11251073 27.0083083 -8.77771485 27.88487467 -6.4375 29.25 C-0.51527984 31.11126919 6.59804108 30.78921521 12.5625 29.25 C12.85546875 35.3046875 12.85546875 35.3046875 12.5625 37.25 C7.64587486 40.52775009 2.30749173 39.77286614 -3.4375 39.25 C-10.25254103 37.63566996 -14.60727749 35.11502822 -18.4375 29.25 C-20.92450352 23.94086482 -21.12674215 19.02772119 -20.4375 13.25 C-17.96128451 8.29756901 -14.21635868 3.63462162 -9.1796875 1.125 C-5.99312298 0.10820448 -3.34153541 -0.01574339 0 0 Z " fill="#646569" transform="translate(629.4375,428.75)"/>
<path d="M0 0 C0 3.3 0 6.6 0 10 C3.63 10 7.26 10 11 10 C11 12.31 11 14.62 11 17 C7.37 17 3.74 17 0 17 C0.14062311 20.43778631 0.28726929 23.87513171 0.4375 27.3125 C0.47681641 28.28896484 0.51613281 29.26542969 0.55664062 30.27148438 C0.61948242 31.67817383 0.61948242 31.67817383 0.68359375 33.11328125 C0.72025146 33.97735596 0.75690918 34.84143066 0.79467773 35.73168945 C0.92747354 38.1647826 0.92747354 38.1647826 2 41 C5.3 41 8.6 41 12 41 C12.04254356 42.99954746 12.04080783 45.00041636 12 47 C10.4483498 48.5516502 8.96270239 48.1694916 6.8125 48.1875 C1.71118592 48.10652676 -2.14143633 47.56510625 -6.15234375 44.1875 C-9.03778992 39.20964783 -8.4213488 34.32553462 -8.25 28.6875 C-8.23195313 27.56537109 -8.21390625 26.44324219 -8.1953125 25.28710938 C-8.14827856 22.52386553 -8.08256317 19.76237302 -8 17 C-9.98 17 -11.96 17 -14 17 C-14 14.69 -14 12.38 -14 10 C-12.02 10 -10.04 10 -8 10 C-8 7.36 -8 4.72 -8 2 C-4.91190305 0.23537317 -3.76687864 0 0 0 Z " fill="#5E5F62" transform="translate(600,490)"/>
<path d="M0 0 C0.01417969 0.6290625 0.02835937 1.258125 0.04296875 1.90625 C0.39765342 8.27140187 1.37078817 13.37078817 6 18 C13.52747923 22.88045357 22.14294443 22.97755666 30.76171875 21.5390625 C32.854938 21.08558643 34.93054053 20.55185586 37 20 C38.35439668 22.70879335 38.06501451 25.00933268 38 28 C27.05166923 32.32781075 15.17293512 32.81607261 4.23828125 28.19921875 C-1.83249253 24.94664013 -5.64570325 19.2503122 -8.25 13 C-9.07615738 9.69537048 -9.5868598 7.37444385 -9 4 C-5.87476431 1.36091208 -4.13534147 0 0 0 Z " fill="#606165" transform="translate(438,507)"/>
<path d="M0 0 C0.03867187 0.94359375 0.03867187 0.94359375 0.078125 1.90625 C0.52257808 8.6134511 1.40485339 14.56031919 6.4453125 19.3828125 C14.71521494 24.6859338 27.77104238 22.49167121 37 21 C37.495 24.96 37.495 24.96 38 29 C32.42975059 30.87417239 27.48359661 31.33589695 21.625 31.3125 C20.82578125 31.32861328 20.0265625 31.34472656 19.203125 31.36132812 C10.85263566 31.36808418 3.69990222 29.45878351 -2.49609375 23.6796875 C-7.92096185 17.62074391 -9.15271046 11.94094376 -9 4 C-7.68872739 3.3309224 -6.3759455 2.66480194 -5.0625 2 C-4.33160156 1.62875 -3.60070312 1.2575 -2.84765625 0.875 C-1 0 -1 0 0 0 Z " fill="#606165" transform="translate(438,436)"/>
<path d="M0 0 C3.12578143 1.6720747 5.39281175 3.7856235 7 7 C7.55270306 11.6118993 7.70585741 14.95259868 5.0625 18.875 C4.381875 19.57625 3.70125 20.2775 3 21 C2.67 21.99 2.34 22.98 2 24 C-8.44422984 24.91260261 -8.44422984 24.91260261 -12.09765625 22.76953125 C-15.74505481 19.14005602 -16.87846719 16.2355836 -17.375 11.1875 C-17.35045479 7.86162457 -16.73648282 6.13354084 -14.625 3.5625 C-10.19705376 -0.76001895 -6.00513209 -0.8460523 0 0 Z " fill="#F9F9F9" transform="translate(503,507)"/>
<path d="M0 0 C3 1.875 3 1.875 5 4 C5 4.66 5 5.32 5 6 C5.99 6.33 6.98 6.66 8 7 C8.02712066 8.43739513 8.04645067 9.87493863 8.0625 11.3125 C8.07410156 12.11300781 8.08570313 12.91351563 8.09765625 13.73828125 C7.93618412 17.47797571 7.06622925 18.92880356 4.5 21.6875 C1.14474264 24.36362093 -1.67832926 24.61716692 -5.88671875 24.35546875 C-9.99804331 23.66391508 -12.15722613 21.98807971 -14.8125 18.875 C-16.48089871 14.83571891 -16.82444363 11.303747 -16 7 C-12.47870458 0.51056285 -7.08136025 -1.03327241 0 0 Z " fill="#F8F8F8" transform="translate(570,436)"/>
<path d="M0 0 C2.95579424 2.13708138 4.57510925 3.82499153 5.42578125 7.42578125 C5.68433736 13.1312528 4.65883588 16.76089667 0.85546875 21.01171875 C0.19546875 21.01171875 -0.46453125 21.01171875 -1.14453125 21.01171875 C-1.14453125 21.67171875 -1.14453125 22.33171875 -1.14453125 23.01171875 C-10.32903852 24.04129875 -10.32903852 24.04129875 -14.2109375 21.83984375 C-17.64376476 18.36565712 -18.55346665 15.22525621 -18.76953125 10.38671875 C-18.5633112 6.72505536 -18.20833675 5.12172823 -16.33203125 1.88671875 C-11.848943 -1.95592832 -5.33157736 -2.45699285 0 0 Z " fill="#F9F9FA" transform="translate(554.14453125,507.98828125)"/>
<path d="M0 0 C3.17868289 1.41835409 5.15844909 3.03827004 7 6 C8.09648677 10.33610678 7.92435998 14.13103857 5.9296875 18.1640625 C4.23176625 20.63469043 2.71562116 22.64218942 0 24 C-4.20127032 24.66494926 -8.2297307 25.044806 -11.9921875 22.82421875 C-15.4604116 19.34769746 -16.41406788 16.24621365 -16.625 11.375 C-16.42128656 7.66741548 -16.07617423 6.12695706 -14.125 2.875 C-9.87927755 -0.87122569 -5.45688918 -0.82137974 0 0 Z " fill="#FAFAFA" transform="translate(639,507)"/>
<path d="M0 0 C3.11326625 1.31117601 5.45304576 2.90609152 7 6 C7.52137294 10.82911 7.73402673 14.74166846 5.25 19 C1.3454144 22.47074276 -1.50841212 23.56806174 -6.8984375 23.45703125 C-10.77925451 22.61306175 -13.49571469 19.98336598 -16 17 C-17.21762731 13.34711807 -17.39075851 10.84245864 -17 7 C-12.74750121 -0.12452222 -7.78929937 -0.89463622 0 0 Z " fill="#F8F8F8" transform="translate(669,437)"/>
<path d="M0 0 C3.98813723 2.14745851 6.33019152 3.79085143 8 8 C8.58917111 12.27722925 8.44539482 15.95332218 6.75 19.9375 C4.80470008 22.2301749 3.87852015 23.14422374 1 24 C-3.21436918 24.33447374 -5.90312958 24.43874817 -9.8125 22.875 C-12.6930515 20.40595586 -13.79416827 18.61749518 -15 15 C-15.29693827 10.04811761 -14.73531917 6.92882421 -11.625 3 C-7.75970465 0.05501307 -4.77855915 -0.46848619 0 0 Z " fill="#FBFBFB" transform="translate(741,436)"/>
<path d="M0 0 C0 2.64 0 5.28 0 8 C-1.03060547 8.03867187 -1.03060547 8.03867187 -2.08203125 8.078125 C-2.98308594 8.13484375 -3.88414062 8.1915625 -4.8125 8.25 C-5.70582031 8.29640625 -6.59914063 8.3428125 -7.51953125 8.390625 C-10.08061398 8.78720586 -10.08061398 8.78720586 -11.62304688 10.671875 C-13.33216664 13.56162075 -13.42637981 15.51408869 -13.51171875 18.859375 C-13.54716797 19.97441406 -13.58261719 21.08945312 -13.61914062 22.23828125 C-13.65297852 23.97658203 -13.65297852 23.97658203 -13.6875 25.75 C-13.72166016 26.92433594 -13.75582031 28.09867187 -13.79101562 29.30859375 C-13.87345173 32.20563389 -13.94261811 35.10237298 -14 38 C-16.64 38 -19.28 38 -22 38 C-22 26.45 -22 14.9 -22 3 C-17 1 -17 1 -14 1 C-14 1.66 -14 2.32 -14 3 C-13.360625 2.505 -12.72125 2.01 -12.0625 1.5 C-7.95976517 -0.50950277 -4.48556418 -0.26385672 0 0 Z " fill="#606064" transform="translate(504,429)"/>
<path d="M0 0 C0 2.31 0 4.62 0 7 C-0.68707031 7.09796875 -1.37414062 7.1959375 -2.08203125 7.296875 C-2.98308594 7.44640625 -3.88414062 7.5959375 -4.8125 7.75 C-5.70582031 7.88921875 -6.59914063 8.0284375 -7.51953125 8.171875 C-10.63904033 9.2133489 -11.33117985 10.19496187 -13 13 C-13.50111517 15.79763443 -13.50111517 15.79763443 -13.51171875 18.859375 C-13.54716797 19.97441406 -13.58261719 21.08945312 -13.61914062 22.23828125 C-13.65297852 23.97658203 -13.65297852 23.97658203 -13.6875 25.75 C-13.72166016 26.92433594 -13.75582031 28.09867187 -13.79101562 29.30859375 C-13.87345173 32.20563389 -13.94261811 35.10237298 -14 38 C-16.64 38 -19.28 38 -22 38 C-22 26.45 -22 14.9 -22 3 C-17 1 -17 1 -14 1 C-14 1.66 -14 2.32 -14 3 C-13.175 2.505 -12.35 2.01 -11.5 1.5 C-7.24511812 -0.32352081 -4.57691329 -0.23673689 0 0 Z " fill="#606164" transform="translate(713,429)"/>
<path d="M0 0 C0 17.82 0 35.64 0 54 C-2.31 54 -4.62 54 -7 54 C-7 36.84 -7 19.68 -7 2 C-3 0 -3 0 0 0 Z " fill="#56575B" transform="translate(671,483)"/>
<path d="M0 0 C1.38541992 0.00193359 1.38541992 0.00193359 2.79882812 0.00390625 C7.37368254 0.06319162 11.17271593 0.19616628 15.3125 2.375 C15.3125 5.345 15.3125 8.315 15.3125 11.375 C14.1575 11.045 13.0025 10.715 11.8125 10.375 C1.20021415 8.03159303 -10.19171765 8.88447537 -20.6875 11.375 C-21.0175 12.365 -21.3475 13.355 -21.6875 14.375 C-26.02083333 17.375 -26.02083333 17.375 -28.6875 17.375 C-27.46521192 11.11077362 -23.73368229 7.88329816 -18.6875 4.375 C-12.50474934 0.37761701 -7.26688629 -0.19515313 0 0 Z " fill="#636468" transform="translate(459.6875,483.625)"/>
<path d="M0 0 C1 1 1 1 1.09765625 3.06640625 C1.08605469 3.89011719 1.07445312 4.71382813 1.0625 5.5625 C1.05347656 6.38878906 1.04445313 7.21507812 1.03515625 8.06640625 C1.02355469 8.70449219 1.01195312 9.34257812 1 10 C-1.42185056 9.41938356 -3.70233279 8.75633352 -6.0625 7.9375 C-15.57325745 5.26639365 -26.33256603 6.91999953 -35.20703125 11.01953125 C-37.90124261 12.53396163 -40.42913942 14.28609294 -43 16 C-42.47780431 10.08178221 -38.7904987 6.74076263 -34.75 2.8125 C-24.40672059 -4.00466143 -11.54108136 -3.32539632 0 0 Z " fill="#616266" transform="translate(474,415)"/>
<path d="M0 0 C0 12.21 0 24.42 0 37 C-2.64 37 -5.28 37 -8 37 C-8 25.45 -8 13.9 -8 2 C-3 0 -3 0 0 0 Z " fill="#636467" transform="translate(603,430)"/>
<path d="M0 0 C0 12.54 0 25.08 0 38 C-2.31 38 -4.62 38 -7 38 C-7 26.12 -7 14.24 -7 2 C-3 0 -3 0 0 0 Z " fill="#595A5E" transform="translate(580,499)"/>
<path d="M0 0 C0.99 0.495 0.99 0.495 2 1 C-8.65086205 11.69752919 -19.30740784 22.3893707 -29.97079277 33.07441711 C-34.92156475 38.03551306 -39.87044206 42.99847204 -44.81494141 47.96582031 C-49.58253893 52.7554388 -54.35530019 57.53985381 -59.13132095 62.32107544 C-60.95680468 64.15026771 -62.78052109 65.9812254 -64.60247421 67.81393433 C-67.14559293 70.37147365 -69.69480242 72.92278431 -72.24560547 75.47265625 C-73.00517548 76.23941681 -73.76474548 77.00617737 -74.54733276 77.7961731 C-75.58639771 78.83111404 -75.58639771 78.83111404 -76.64645386 79.88696289 C-77.24930647 80.49165909 -77.85215908 81.09635529 -78.47327995 81.71937561 C-80 83 -80 83 -82 83 C-80.43071481 78.29214443 -76.92915316 75.74736233 -73.125 72.6875 C-69.92389863 70.0788904 -67.33822204 67.05315192 -64.66015625 63.921875 C-61.88070734 60.70425414 -59.00660538 57.76819884 -55.625 55.1875 C-52.6247194 52.68726617 -50.22811578 49.9117063 -47.69140625 46.953125 C-44.73829102 43.54306123 -41.63931537 40.51423193 -38.125 37.6875 C-34.81902154 35.01531015 -32.20544849 31.85168386 -29.515625 28.57421875 C-29.01546875 28.05472656 -28.5153125 27.53523438 -28 27 C-27.34 27 -26.68 27 -26 27 C-25.79375 26.443125 -25.5875 25.88625 -25.375 25.3125 C-23.85406579 22.7545652 -22.02467021 21.31278817 -19.7109375 19.484375 C-17.08143821 17.20307424 -14.91533882 14.55852652 -12.65625 11.91796875 C-8.81162544 7.46582097 -4.54677411 3.70086265 0 0 Z " fill="#717275" transform="translate(283,454)"/>
<path d="M0 0 C3.375 1.6875 3.375 1.6875 6 4 C6.33 5.65 6.66 7.3 7 9 C0.07 9 -6.86 9 -14 9 C-13 4 -13 4 -10.375 1.6875 C-6.44255989 -0.27872006 -4.34125813 -0.62017973 0 0 Z " fill="#EEEEEF" transform="translate(527,436)"/>
<path d="M0 0 C0.763125 0.20625 1.52625 0.4125 2.3125 0.625 C2.9375 4 2.9375 4 3.3125 7.625 C1.3125 9.625 1.3125 9.625 -1.1875 9.875 C-3.6875 9.625 -3.6875 9.625 -5.6875 7.625 C-6 4.625 -6 4.625 -5.6875 1.625 C-2.6875 -0.375 -2.6875 -0.375 0 0 Z " fill="#646568" transform="translate(599.6875,412.375)"/>
<path d="M0 0 C2.875 -0.125 2.875 -0.125 6 0 C8 2 8 2 8.1875 5.0625 C8 8 8 8 7 9 C3.5 9.125 3.5 9.125 0 9 C-1 8 -1 8 -1.125 5.0625 C-1 2 -1 2 0 0 Z " fill="#5F6063" transform="translate(573,483)"/>
<path d="M0 0 C0.66 0.33 1.32 0.66 2 1 C0.37660195 2.70884005 -1.29319053 4.37446717 -3 6 C-3.66 6 -4.32 6 -5 6 C-4.67 10.29 -4.34 14.58 -4 19 C-6 18 -6 18 -7 15 C-7.67195988 8.16840786 -7.67195988 8.16840786 -5.953125 5.1796875 C-4.17314908 3.01230505 -2.5252735 1.26263675 0 0 Z " fill="#D6D7D8" transform="translate(493,507)"/>
<path d="M0 0 C-1.03125 0.37125 -2.0625 0.7425 -3.125 1.125 C-7.39122426 2.91629497 -9.8319224 5.68456996 -13 9 C-13.66 9 -14.32 9 -15 9 C-13.43989422 4.78771439 -10.5154607 2.65453155 -7 0 C-3.86650268 -1.04449911 -3.01031744 -0.93423645 0 0 Z " fill="#828386" transform="translate(449,416)"/>
<path d="M0 0 C0.66 0.33 1.32 0.66 2 1 C-0.31 3.31 -2.62 5.62 -5 8 C-5.33 7.34 -5.66 6.68 -6 6 C-2.25 1.125 -2.25 1.125 0 0 Z " fill="#E4E4E5" transform="translate(629,507)"/>
<path d="M0 0 C0.99 0.33 1.98 0.66 3 1 C-0.465 3.97 -0.465 3.97 -4 7 C-2.92598892 4.08482708 -2.22189824 2.22189824 0 0 Z " fill="#D9D9DA" transform="translate(540,508)"/>
</svg>
