<?xml version="1.0" encoding="UTF-8"?>
<svg version="1.1" xmlns="http://www.w3.org/2000/svg" width="842" height="836">
<path d="M0 0 C277.86 0 555.72 0 842 0 C842 275.88 842 551.76 842 836 C564.14 836 286.28 836 0 836 C0 560.12 0 284.24 0 0 Z " fill="#FEFEFE" transform="translate(0,0)"/>
<path d="M0 0 C11.58848611 -0.11649136 23.17683007 -0.20501602 34.76578522 -0.25906086 C40.14859383 -0.28501611 45.53099818 -0.32015341 50.91357422 -0.37719727 C56.120223 -0.43202349 61.32648603 -0.46152598 66.53340149 -0.47438622 C68.50749269 -0.48353613 70.48156579 -0.50140033 72.45549011 -0.52865028 C89.63314965 -0.75608611 105.24960759 1.05501158 118.3984375 13.21875 C126.84341924 21.855042 129.2985826 29.78717097 129.4375 41.625 C129.44789307 42.41253662 129.45828613 43.20007324 129.46899414 44.01147461 C129.31532624 54.16945273 125.63094527 63.52227773 118.27734375 70.67578125 C116.89416872 71.8366019 115.45284732 72.92766031 114 74 C117.34292045 76.7298052 117.34292045 76.7298052 120.8671875 79.21484375 C129.10828841 84.74632199 134.39743643 93.47784483 137 103 C137.41746364 106.03486199 137.4782474 109.00202291 137.4375 112.0625 C137.42775146 112.88886963 137.41800293 113.71523926 137.40795898 114.56665039 C137.0260174 128.00969962 133.62070076 139.17176487 124 149 C112.33703984 158.87985549 96.90403038 162.15358265 81.9753418 162.14526367 C80.66189537 162.15030159 80.66189537 162.15030159 79.32191467 162.15544128 C76.44766803 162.16488786 73.57347992 162.16689056 70.69921875 162.16796875 C68.69619218 162.17118337 66.69316585 162.1745476 64.69013977 162.17805481 C60.50330052 162.1840286 56.31648188 162.18589627 52.12963867 162.18530273 C46.75477385 162.18520067 41.38003982 162.19890586 36.00520611 162.21607494 C31.87465298 162.22716382 27.74413194 162.22922298 23.61356544 162.22869301 C21.63075111 162.22987579 19.64793603 162.23431417 17.66513634 162.24202538 C14.90255737 162.25177173 12.14026872 162.24896967 9.37768555 162.24291992 C8.55430695 162.24853943 7.73092834 162.25415894 6.88259888 162.25994873 C1.22832241 162.22832241 1.22832241 162.22832241 -1 160 C-1.24888897 157.29194641 -1.24888897 157.29194641 -1.24723816 153.7746582 C-1.24965257 153.12915921 -1.25206699 152.48366022 -1.25455457 151.81860065 C-1.26021061 149.64589267 -1.25151432 147.47347623 -1.24291992 145.30078125 C-1.24399234 143.74710002 -1.24593041 142.19341917 -1.24867249 140.63973999 C-1.25353051 136.41254693 -1.24585324 132.18545901 -1.23571944 127.95827866 C-1.22695431 123.54160425 -1.22869609 119.12493329 -1.2290802 114.70825195 C-1.22814285 107.29018386 -1.21944934 99.8721566 -1.20581055 92.45410156 C-1.19008428 83.86877444 -1.18481241 75.28349207 -1.1855461 66.69815159 C-1.1861558 58.45097289 -1.18105568 50.20380883 -1.17275429 41.95663452 C-1.16921713 38.44151699 -1.16739042 34.92640463 -1.16686058 31.4112854 C-1.16585832 27.27452574 -1.15977125 23.13780387 -1.14969444 19.00105667 C-1.1467659 17.47964331 -1.14554479 15.95822561 -1.14612198 14.43680954 C-1.14661036 12.36627971 -1.14097981 10.29585678 -1.13371277 8.2253418 C-1.13203692 7.06463669 -1.13036108 5.90393158 -1.12863445 4.70805359 C-1 2 -1 2 0 0 Z " fill="#044681" transform="translate(283,275)"/>
<path d="M0 0 C1.31729851 -0.0098568 1.31729851 -0.0098568 2.66120911 -0.01991272 C5.58493122 -0.03971406 8.50860156 -0.05132958 11.43237305 -0.0612793 C12.93102433 -0.06739259 12.93102433 -0.06739259 14.4599514 -0.07362938 C19.75812958 -0.09452911 25.05628164 -0.10880824 30.35449219 -0.11816406 C35.80714658 -0.12917667 41.25938699 -0.16350538 46.71189594 -0.20333576 C50.91835744 -0.22960776 55.12472247 -0.23786575 59.33125877 -0.24144554 C61.33932446 -0.24629205 63.3473864 -0.25785023 65.35537148 -0.27648354 C81.52354278 -0.41706952 97.40349014 1.27069245 109.6315918 13.17700195 C117.51713383 22.76898246 121.42573797 32.1099583 121.0144043 44.61450195 C119.80388215 55.87976932 115.90951163 64.83018323 107.2565918 72.17700195 C106.3903418 72.83700195 105.5240918 73.49700195 104.6315918 74.17700195 C105.1987793 74.60239258 105.7659668 75.0277832 106.3503418 75.46606445 C107.1031543 76.03067383 107.8559668 76.5952832 108.6315918 77.17700195 C109.3637793 77.72098633 110.0959668 78.2649707 110.8503418 78.82543945 C119.23370763 85.17038415 124.28331411 92.13216889 127.6315918 102.17700195 C128.94302356 117.3371531 128.23154691 132.52883821 118.60424805 144.99731445 C108.39166352 156.28171478 94.20886465 161.29345687 79.27335358 162.34266663 C73.02183245 162.59966579 66.76966537 162.54755484 60.5144043 162.50512695 C58.52041772 162.50206221 56.52642898 162.50019154 54.53244019 162.49945068 C50.38913563 162.49488467 46.24602947 162.48059019 42.1027832 162.45825195 C36.78188373 162.4297123 31.46113793 162.41901056 26.14016914 162.41456985 C22.03968769 162.41042789 17.93923743 162.40062492 13.83877182 162.38869476 C11.87467574 162.38298913 9.91057667 162.37823139 7.94647598 162.3744278 C5.22052887 162.36759558 2.4947065 162.35398475 -0.23120117 162.33813477 C-1.45280945 162.33645798 -1.45280945 162.33645798 -2.69909668 162.33474731 C-8.2537006 162.29170955 -8.2537006 162.29170955 -9.3684082 161.17700195 C-9.46741917 159.1163636 -9.49473138 157.05227336 -9.49539185 154.98925781 C-9.49695184 154.33574058 -9.49851183 153.68222334 -9.50011909 153.00890255 C-9.50413081 150.80319448 -9.5009388 148.59755437 -9.49780273 146.3918457 C-9.4991567 144.81698567 -9.5009366 143.24212596 -9.50311279 141.66726685 C-9.50768769 137.37813166 -9.50589734 133.08902042 -9.50273371 128.7998848 C-9.5002104 124.32134179 -9.50254756 119.8428009 -9.50411987 115.36425781 C-9.50594165 107.84187449 -9.50353504 100.31950097 -9.4987793 92.79711914 C-9.49333666 84.08739531 -9.49509931 75.37769488 -9.5006057 66.66797161 C-9.50513659 59.20387668 -9.5057875 51.73978881 -9.50316703 44.27569294 C-9.50160412 39.81162952 -9.50141087 35.34757712 -9.50470352 30.8835144 C-9.50758189 26.6876808 -9.50560719 22.49187752 -9.49980927 18.29604721 C-9.49848148 16.75163702 -9.4988761 15.2072243 -9.50107193 13.66281509 C-9.50378272 11.56342374 -9.50040322 9.46413107 -9.49539185 7.36474609 C-9.49501482 6.18707169 -9.49463779 5.00939728 -9.49424934 3.79603577 C-9.22960434 -1.7118149 -4.38480989 0.01407263 0 0 Z " fill="#024581" transform="translate(128.368408203125,274.822998046875)"/>
<path d="M0 0 C1.74609375 0.078125 1.74609375 0.078125 4 1 C5.54458182 3.23887899 6.80662846 5.35505555 8.0625 7.75 C8.44752686 8.45882324 8.83255371 9.16764648 9.22924805 9.89794922 C10.50313672 12.25666349 11.75411208 14.62638501 13 17 C13.42732422 17.81178711 13.85464844 18.62357422 14.29492188 19.45996094 C16.10888368 22.91133998 17.91738447 26.3654742 19.71679688 29.82446289 C22.92592196 35.98684147 26.21669078 42.09840109 29.5625 48.1875 C34.73846811 57.61834761 39.78853757 67.11266392 44.8125 76.625 C50.95814949 88.26056408 57.13390812 99.87846979 63.35961914 111.47143555 C66.79073745 117.86459739 70.20682644 124.26530688 73.60546875 130.67578125 C73.9932399 131.40698181 74.38101105 132.13818237 74.78053284 132.89154053 C76.6740286 136.4626624 78.56584437 140.03466087 80.45532227 143.60791016 C81.14204687 144.90399412 81.82881239 146.20005641 82.515625 147.49609375 C83.11665039 148.63232178 83.71767578 149.7685498 84.33691406 150.93920898 C85.94057751 153.99022352 85.94057751 153.99022352 87.78027344 156.71899414 C88.1827832 157.47172607 88.58529297 158.22445801 89 159 C88.67 159.99 88.34 160.98 88 162 C78.1 162 68.2 162 58 162 C55.73125 157.606875 53.4625 153.21375 51.125 148.6875 C39.46470247 126.13576401 39.46470247 126.13576401 27.375 103.8125 C23.76277199 97.29283843 20.29468498 90.73027816 17.00537109 84.04223633 C12.84674543 75.60380792 8.41031688 67.30881922 4 59 C1.58481421 59.15607722 1.58481421 59.15607722 -1 60 C-2.62149518 61.92862176 -2.62149518 61.92862176 -3.76171875 64.4609375 C-4.4721936 65.86545166 -4.4721936 65.86545166 -5.19702148 67.29833984 C-5.68887939 68.3136377 -6.1807373 69.32893555 -6.6875 70.375 C-7.75471256 72.50024903 -8.82242755 74.62524583 -9.890625 76.75 C-10.41720703 77.8121875 -10.94378906 78.874375 -11.48632812 79.96875 C-13.56953556 84.1405409 -15.74764884 88.25851176 -17.9375 92.375 C-20.70177569 97.60651667 -23.44337958 102.84911424 -26.16015625 108.10546875 C-31.47731263 118.38858951 -36.83566016 128.62534011 -42.52319336 138.70898438 C-45.73134169 144.42829039 -48.70018447 150.24871792 -51.57739258 156.14086914 C-53.910038 160.910038 -53.910038 160.910038 -55 162 C-57.21855264 162.08783542 -59.43988496 162.10694609 -61.66015625 162.09765625 C-62.65685585 162.09553383 -62.65685585 162.09553383 -63.6736908 162.09336853 C-65.80333899 162.08775518 -67.93288339 162.07520054 -70.0625 162.0625 C-71.50325369 162.05748671 -72.94400903 162.05292351 -74.38476562 162.04882812 C-77.92321102 162.03778145 -81.46159539 162.02050792 -85 162 C-84.44939322 157.13331685 -82.99684138 153.62461342 -80.67578125 149.328125 C-80.33814255 148.69743103 -80.00050385 148.06673706 -79.65263367 147.41693115 C-78.5472848 145.35685059 -77.42998766 143.30351717 -76.3125 141.25 C-75.53371863 139.80380872 -74.75573336 138.35718847 -73.97851562 136.91015625 C-72.02322901 133.27412098 -70.05856566 129.64325381 -68.09088135 126.01391602 C-65.94018002 122.04342752 -63.80284395 118.06574939 -61.66308594 114.08935547 C-60.54633591 112.01487589 -59.42848153 109.94099047 -58.30957031 107.86767578 C-53.69099579 99.30587196 -49.12176289 90.71846771 -44.5625 82.125 C-33.44823672 61.1836627 -33.44823672 61.1836627 -27.9375 50.875 C-27.62313995 50.28686523 -27.30877991 49.69873047 -26.9848938 49.09277344 C-23.00876044 41.66149495 -18.93362286 34.30746006 -14.6953125 27.0234375 C-12.8042369 23.6508741 -11.07725203 20.22045762 -9.375 16.75 C-6.53748575 10.97060315 -3.42723512 5.44842506 0 0 Z " fill="#034681" transform="translate(649,251)"/>
<path d="M0 0 C4.03801774 -0.17367408 8.07457791 -0.30034608 12.11547852 -0.38452148 C13.48825967 -0.41962146 14.86078097 -0.46731822 16.23266602 -0.52807617 C27.58873208 -1.01823644 27.58873208 -1.01823644 30.94702148 1.40478516 C32.27377609 3.22107242 33.15489124 4.92029757 34 7 C34.47824219 7.87140625 34.95648438 8.7428125 35.44921875 9.640625 C35.85785156 10.50171875 36.26648438 11.3628125 36.6875 12.25 C39.21937314 17.44869383 41.85676639 22.57714526 44.5625 27.6875 C47.45890344 33.16293087 50.33965498 38.64553159 53.18359375 44.1484375 C58.49421313 54.42223787 63.85082079 64.646733 69.52978516 74.72216797 C72.63820482 80.26660503 75.52902664 85.90001396 78.3137207 91.61352539 C80.38431885 95.84994103 82.62717763 99.92857131 85 104 C85.99 104 86.98 104 88 104 C88.34144043 103.34217529 88.68288086 102.68435059 89.03466797 102.0065918 C95.91990719 88.74472148 102.82507615 75.49412502 109.79833984 62.27832031 C111.4485417 59.14957514 113.09583661 56.01930378 114.74291992 52.88891602 C115.58002725 51.29810319 116.41742896 49.70744523 117.25512695 48.11694336 C119.31840185 44.19909356 121.37802685 40.27941441 123.4296875 36.35546875 C129.81425636 24.15943608 136.3864299 12.07361052 143 0 C152.9 0 162.8 0 173 0 C172.16032922 5.03802465 171.54934394 7.34113546 169.21875 11.5859375 C168.33993164 13.20435547 168.33993164 13.20435547 167.44335938 14.85546875 C166.79557967 16.02864956 166.147793 17.20182653 165.5 18.375 C164.82515913 19.61272961 164.15135338 20.85102409 163.47851562 22.08984375 C162.41742438 24.04325866 161.35570292 25.99630173 160.29089355 27.94769287 C156.66255812 34.59896738 153.11107541 41.29016766 149.56634521 47.98626709 C147.77872685 51.36208374 145.98720103 54.73582348 144.1953125 58.109375 C143.84324738 58.77222504 143.49118225 59.43507507 143.12844849 60.11801147 C137.74079075 70.2567494 132.31042641 80.37261984 126.88232422 90.48974609 C124.90016187 94.18618321 122.92043001 97.88391327 120.94140625 101.58203125 C120.26449434 102.84668432 119.58757385 104.1113328 118.91064453 105.37597656 C117.63912636 107.75143584 116.36802294 110.12711537 115.09716797 112.50292969 C112.37719183 117.58314074 109.64634849 122.6564076 106.87890625 127.7109375 C104.18960496 132.62952216 101.58753151 137.58986291 99 142.5625 C95.54246776 149.17563362 91.99108903 155.68888768 88 162 C86.2109375 161.83203125 86.2109375 161.83203125 84 161 C82.2890625 158.69921875 82.2890625 158.69921875 80.625 155.6875 C80.0165625 154.59308594 79.408125 153.49867188 78.78125 152.37109375 C76.66608935 148.36805945 74.65074371 144.32391916 72.66015625 140.2578125 C70.73548535 136.4809289 68.6629916 132.80602041 66.5625 129.125 C63.74865471 124.1880813 61.06722301 119.22896386 58.5625 114.125 C55.45977512 107.80410001 52.07182787 101.67411947 48.62353516 95.53613281 C45.77305828 90.44420885 43.11821538 85.28979643 40.5546875 80.046875 C38.66430764 76.34211045 36.62217827 72.73756954 34.5625 69.125 C31.79626863 64.26867638 29.14966519 59.39541488 26.6875 54.375 C23.70307654 48.30276658 20.50662866 42.36783471 17.25 36.4375 C13.04949748 28.76800198 8.85989054 21.09352555 4.75 13.375 C4.27208008 12.49255615 3.79416016 11.6101123 3.30175781 10.70092773 C2.86702148 9.87923096 2.43228516 9.05753418 1.984375 8.2109375 C1.59991211 7.49212402 1.21544922 6.77331055 0.81933594 6.03271484 C0 4 0 4 0 0 Z " fill="#034681" transform="translate(422,275)"/>
<path d="M0 0 C1.23921707 -0.02244278 2.47843414 -0.04488556 3.75520325 -0.06800842 C5.11763369 -0.08103576 6.48007716 -0.09275578 7.8425293 -0.10327148 C8.87456513 -0.11362584 8.87456513 -0.11362584 9.92745018 -0.12418938 C13.57989105 -0.16008821 17.23217666 -0.18358143 20.88476562 -0.19726562 C24.62619398 -0.21368468 28.36568835 -0.27189099 32.10647297 -0.34040928 C35.00737933 -0.38563981 37.907844 -0.39879338 40.80907249 -0.40388298 C42.18561733 -0.4116909 43.56215464 -0.43106904 44.93834877 -0.46310616 C55.02202664 -0.68205871 62.99277152 1.05726313 71.10424805 7.33813477 C75.47376846 13.13580159 76.30565261 17.48105164 76.35424805 24.58813477 C76.37487305 25.32676758 76.39549805 26.06540039 76.41674805 26.82641602 C76.4589701 32.81139196 75.42794061 37.42448917 71.59643555 42.22875977 C71.06276367 42.67735352 70.5290918 43.12594727 69.97924805 43.58813477 C69.20194336 44.27649414 69.20194336 44.27649414 68.40893555 44.97875977 C60.12743007 49.86344435 51.64457483 49.75524294 42.26049805 49.66625977 C40.84086305 49.66319651 39.42122503 49.6613247 38.00158691 49.6605835 C35.04643001 49.65600962 32.09155008 49.64168724 29.13647461 49.61938477 C25.34219736 49.59089643 21.54813538 49.58014939 17.75376129 49.57570267 C14.8319279 49.57155837 11.9101382 49.56175261 8.98832703 49.54982758 C7.5880315 49.54412218 6.18773179 49.53936436 4.78742981 49.53556061 C2.84157801 49.52872248 0.89575772 49.5141968 -1.05004883 49.49926758 C-2.1576355 49.49243958 -3.26522217 49.48561157 -4.40637207 49.47857666 C-6.89575195 49.33813477 -6.89575195 49.33813477 -7.89575195 48.33813477 C-7.99907122 46.90622616 -8.03425081 45.46930673 -8.04101562 44.03369141 C-8.04739548 43.11926773 -8.05377533 42.20484406 -8.06034851 41.26271057 C-8.06146133 40.26795212 -8.06257416 39.27319366 -8.0637207 38.24829102 C-8.0670491 37.23343124 -8.0703775 36.21857147 -8.07380676 35.17295837 C-8.07888046 33.02172297 -8.08121495 30.87047966 -8.08105469 28.71923828 C-8.08324029 25.41824441 -8.10138902 22.11758501 -8.12036133 18.81665039 C-8.12329526 16.73136508 -8.12528006 14.64607818 -8.1262207 12.56079102 C-8.13340622 11.56805679 -8.14059174 10.57532257 -8.147995 9.55250549 C-8.14338005 8.17614174 -8.14338005 8.17614174 -8.13867188 6.77197266 C-8.14009689 5.96224503 -8.14152191 5.1525174 -8.14299011 4.31825256 C-7.54403602 -0.47874021 -3.96008528 0.06038901 0 0 Z " fill="#FBFCFD" transform="translate(152.895751953125,363.661865234375)"/>
<path d="M0 0 C7.48532285 -0.06998645 14.97061112 -0.1230553 22.4561882 -0.15543652 C25.93331334 -0.17099005 29.41021211 -0.19203537 32.88720703 -0.22631836 C36.89878317 -0.26561778 40.91012731 -0.27979421 44.921875 -0.29296875 C46.15049255 -0.30845261 47.37911011 -0.32393646 48.6449585 -0.33988953 C58.53252532 -0.3417877 69.17284051 0.31827848 77 7 C82.97722894 13.05888507 83.28503658 17.87930516 83.32128906 26.20629883 C83.1967018 33.14530416 81.34065439 37.93293563 77.1875 43.375 C70.92074312 48.03030511 64.25861644 49.12392754 56.66503906 49.12939453 C55.40733704 49.13254669 54.14963501 49.13569885 52.8538208 49.13894653 C51.49108851 49.13715731 50.12835654 49.13510649 48.765625 49.1328125 C47.36269107 49.13348642 45.95975726 49.13445719 44.55682373 49.13571167 C41.62494794 49.13718253 38.6931027 49.13505246 35.76123047 49.13037109 C31.99599931 49.12465305 28.23083911 49.12796972 24.4656105 49.13394356 C21.57295186 49.13754773 18.6803102 49.13641162 15.78765106 49.13381577 C14.39851625 49.13314719 13.00937992 49.13397252 11.62024689 49.13629532 C9.68595914 49.13882171 7.75166601 49.13429149 5.81738281 49.12939453 C4.71549622 49.12859894 3.61360962 49.12780334 2.47833252 49.12698364 C0 49 0 49 -1 48 C-1.09813311 46.5678957 -1.12798274 45.13101853 -1.12939453 43.69555664 C-1.13254669 42.78113297 -1.13569885 41.86670929 -1.13894653 40.92457581 C-1.1369223 39.92981735 -1.13489807 38.9350589 -1.1328125 37.91015625 C-1.13376923 36.89529648 -1.13472595 35.88043671 -1.13571167 34.83482361 C-1.13639368 32.68358295 -1.13453798 30.53234025 -1.13037109 28.38110352 C-1.12502864 25.08019398 -1.13031257 21.77942086 -1.13671875 18.47851562 C-1.13605786 16.39322886 -1.13477648 14.30794219 -1.1328125 12.22265625 C-1.13483673 11.22992203 -1.13686096 10.23718781 -1.13894653 9.21437073 C-1.13579437 8.29679489 -1.13264221 7.37921906 -1.12939453 6.43383789 C-1.12859894 5.62411026 -1.12780334 4.81438263 -1.12698364 3.9801178 C-1 2 -1 2 0 0 Z " fill="#FCFDFD" transform="translate(310,364)"/>
<path d="M0 0 C1.6331012 -0.01429802 1.6331012 -0.01429802 3.29919434 -0.02888489 C4.48243286 -0.02797348 5.66567139 -0.02706207 6.88476562 -0.02612305 C8.10119751 -0.03040817 9.31762939 -0.0346933 10.57092285 -0.03910828 C13.15339536 -0.04486331 15.73588408 -0.04534326 18.31835938 -0.04101562 C22.24703237 -0.03787694 26.174937 -0.06122704 30.10351562 -0.08666992 C32.61393135 -0.08894508 35.12434908 -0.08964541 37.63476562 -0.08862305 C39.38533264 -0.10243767 39.38533264 -0.10243767 41.17126465 -0.11653137 C48.94478653 -0.07306481 56.62071564 0.45435917 63.22851562 4.9230957 C63.74414062 5.49286133 64.25976562 6.06262695 64.79101562 6.6496582 C65.32726562 7.21426758 65.86351562 7.77887695 66.41601562 8.3605957 C70.78255727 14.43902015 70.35392864 21.08389843 69.79101562 28.2746582 C68.08476397 33.79488416 64.52900232 37.15890962 59.79101562 40.2746582 C52.31275768 43.51766918 44.88896455 43.70256252 36.85351562 43.63793945 C35.65162598 43.63843796 34.44973633 43.63893646 33.21142578 43.63945007 C30.69024996 43.63712287 28.16907123 43.62747505 25.64794922 43.61083984 C21.77485662 43.58705899 17.90244486 43.59031269 14.02929688 43.59692383 C11.57486567 43.59135267 9.12043736 43.58424634 6.66601562 43.57543945 C5.50465088 43.57635086 4.34328613 43.57726227 3.14672852 43.57820129 C1.54365845 43.56390327 1.54365845 43.56390327 -0.09179688 43.54931641 C-1.0342627 43.54470901 -1.97672852 43.54010162 -2.94775391 43.53535461 C-5.20898438 43.2746582 -5.20898438 43.2746582 -7.20898438 41.2746582 C-7.40896762 38.35716685 -7.48873325 35.53663891 -7.47460938 32.6184082 C-7.47652283 31.76033569 -7.47843628 30.90226318 -7.48040771 30.01818848 C-7.48176981 28.20247098 -7.47807165 26.38674375 -7.46972656 24.57104492 C-7.45902729 21.78582971 -7.46962091 19.00125952 -7.48242188 16.21606445 C-7.48110028 14.45434427 -7.4785379 12.6926245 -7.47460938 10.9309082 C-7.47865784 10.09442749 -7.4827063 9.25794678 -7.48687744 8.39611816 C-7.43305465 1.78640454 -6.66697633 0.03198957 0 0 Z " fill="#FAFBFC" transform="translate(152.208984375,297.725341796875)"/>
<path d="M0 0 C1.57303894 -0.01429802 1.57303894 -0.01429802 3.17785645 -0.02888489 C4.31734741 -0.02797348 5.45683838 -0.02706207 6.63085938 -0.02612305 C7.80289917 -0.03040817 8.97493896 -0.0346933 10.18249512 -0.03910828 C12.67081048 -0.0448631 15.15914268 -0.04534341 17.64746094 -0.04101562 C21.4312884 -0.03787772 25.21431744 -0.06122437 28.99804688 -0.08666992 C31.41731673 -0.08894518 33.83658867 -0.08964536 36.25585938 -0.08862305 C37.37915649 -0.09783279 38.50245361 -0.10704254 39.65979004 -0.11653137 C50.32351006 -0.05468068 58.26779296 2.00501674 66.72460938 8.6496582 C70.79960506 13.9471526 70.71541116 20.90556965 69.97460938 27.2746582 C68.18065566 32.83221583 65.27681523 37.53023611 60.02539062 40.30435181 C52.81427274 43.5108968 46.41829138 43.8301039 38.59960938 43.7355957 C37.35332764 43.73467926 36.1070459 43.73376282 34.82299805 43.7328186 C31.54217206 43.72527985 28.26214607 43.69940735 24.98150635 43.66589355 C22.29308828 43.64414485 19.60487271 43.64495954 16.91638184 43.64616966 C13.70656464 43.64549677 10.49687417 43.62784605 7.28710938 43.6105957 C6.08199707 43.60837006 4.87688477 43.60614441 3.63525391 43.60385132 C1.97212158 43.58471176 1.97212158 43.58471176 0.27539062 43.56518555 C-0.70260498 43.55756195 -1.68060059 43.54993835 -2.68823242 43.54208374 C-5.02539062 43.2746582 -5.02539062 43.2746582 -7.02539062 41.2746582 C-7.22537387 38.35716685 -7.3051395 35.53663891 -7.29101562 32.6184082 C-7.29292908 31.76033569 -7.29484253 30.90226318 -7.29681396 30.01818848 C-7.29817606 28.20247098 -7.2944779 26.38674375 -7.28613281 24.57104492 C-7.27543354 21.78582971 -7.28602716 19.00125952 -7.29882812 16.21606445 C-7.29750653 14.45434427 -7.29494415 12.6926245 -7.29101562 10.9309082 C-7.29506409 10.09442749 -7.29911255 9.25794678 -7.30328369 8.39611816 C-7.25061137 1.92768819 -6.57305422 0.03275073 0 0 Z " fill="#FBFCFD" transform="translate(316.025390625,297.725341796875)"/>
<path d="M0 0 C0.99 0 1.98 0 3 0 C2.835 0.598125 2.67 1.19625 2.5 1.8125 C1.81606278 4.80472534 2.03472303 7.38195333 2.3125 10.4375 C2 14 2 14 -0.0625 16.4375 C-3.61066944 18.32482417 -6.03640173 18.31087045 -10 18 C-10 19.32 -10 20.64 -10 22 C-9.33613281 21.95359375 -8.67226563 21.9071875 -7.98828125 21.859375 C-3.62085593 21.68085251 -0.78539559 21.57588638 3.125 23.6875 C5 26 5 26 5.5625 28.5 C4.83188037 31.74719836 3.57342814 32.94125749 1 35 C-1.77052181 35.92350727 -3.56688758 36.16329585 -6.4375 36.1875 C-7.58025391 36.20876953 -7.58025391 36.20876953 -8.74609375 36.23046875 C-11.2732592 35.97205842 -12.85425032 35.34404101 -15 34 C-16.35439668 31.29120665 -16.06501451 28.99066732 -16 26 C-14.68 25.67 -13.36 25.34 -12 25 C-12.66 24.01 -13.32 23.02 -14 22 C-13.625 20 -13.625 20 -13 18 C-13 17.01 -13 16.02 -13 15 C-13.33 14.67 -13.66 14.34 -14 14 C-14.69630323 6.92091717 -14.69630323 6.92091717 -12.0625 3.4375 C-7.80833021 1.44064479 -4.50926483 2.09618221 0 3 C0 2.01 0 1.02 0 0 Z " fill="#17538A" transform="translate(381,468)"/>
<path d="M0 0 C1.65 0 3.3 0 5 0 C7.94145607 6.9075997 10.72841087 13.82852131 13.203125 20.91796875 C13.82152451 22.95740197 13.82152451 22.95740197 15 24 C15.23710693 23.34402832 15.47421387 22.68805664 15.71850586 22.01220703 C16.79025037 19.04934949 17.86385169 16.08716816 18.9375 13.125 C19.31068359 12.09246094 19.68386719 11.05992187 20.06835938 9.99609375 C20.60493164 8.51689453 20.60493164 8.51689453 21.15234375 7.0078125 C21.48226318 6.09660645 21.81218262 5.18540039 22.15209961 4.24658203 C23 2 23 2 24 0 C25.65 0 27.3 0 29 0 C29 10.23 29 20.46 29 31 C28.01 31 27.02 31 26 31 C25.505 19.615 25.505 19.615 25 8 C24.46890625 9.57652344 23.9378125 11.15304687 23.390625 12.77734375 C22.67793231 14.83102399 21.96434422 16.88439364 21.25 18.9375 C20.90195312 19.97841797 20.55390625 21.01933594 20.1953125 22.09179688 C19.84726562 23.08115234 19.49921875 24.07050781 19.140625 25.08984375 C18.82641602 26.00628662 18.51220703 26.92272949 18.18847656 27.86694336 C17 30 17 30 14.86621094 30.80688477 C13.94243652 30.90247681 13.94243652 30.90247681 13 31 C9.76630746 23.40612366 6.76316929 15.77780987 4 8 C3.67 15.59 3.34 23.18 3 31 C2.01 31 1.02 31 0 31 C0 20.77 0 10.54 0 0 Z " fill="#0A4B84" transform="translate(254,463)"/>
<path d="M0 0 C1.2065625 0.0309375 1.2065625 0.0309375 2.4375 0.0625 C5.31475285 7.01743643 7.84699743 14.03540632 10.1875 21.1875 C10.50332031 22.14398438 10.81914062 23.10046875 11.14453125 24.0859375 C11.91165429 26.41055276 12.67593282 28.73605994 13.4375 31.0625 C12.1175 31.0625 10.7975 31.0625 9.4375 31.0625 C8.18085022 28.15649739 7.4375 26.26645416 7.4375 23.0625 C2.4875 23.0625 -2.4625 23.0625 -7.5625 23.0625 C-7.8925 25.0425 -8.2225 27.0225 -8.5625 29.0625 C-8.8925 29.7225 -9.2225 30.3825 -9.5625 31.0625 C-10.8825 30.7325 -12.2025 30.4025 -13.5625 30.0625 C-12.16037836 25.94948336 -10.75446286 21.83778988 -9.3449707 17.72729492 C-8.86572682 16.32791578 -8.3875332 14.92817651 -7.91040039 13.52807617 C-7.22556015 11.51906923 -6.53698943 9.5113753 -5.84765625 7.50390625 C-5.43394775 6.29420166 -5.02023926 5.08449707 -4.59399414 3.83813477 C-3.19662311 0.07796642 -3.19662311 0.07796642 0 0 Z " fill="#18548A" transform="translate(138.5625,462.9375)"/>
<path d="M0 0 C0.33 0.99 0.66 1.98 1 3 C1.474375 2.505 1.94875 2.01 2.4375 1.5 C6.07321156 -0.6282214 9.88364702 -0.96275659 14 0 C15.765625 1.41796875 15.765625 1.41796875 17 4 C17.35573288 7.25969015 17.28179969 10.47610806 17.1875 13.75 C17.16719727 15.08224609 17.16719727 15.08224609 17.14648438 16.44140625 C17.11121309 18.62822578 17.06192752 20.81379966 17 23 C15.68 23 14.36 23 13 23 C12.505 13.595 12.505 13.595 12 4 C9.69 4 7.38 4 5 4 C3.3501993 7.29960141 3.61741639 10.99127884 3.4375 14.625 C3.39431641 15.42679687 3.35113281 16.22859375 3.30664062 17.0546875 C3.20048543 19.0362511 3.09973145 21.01810271 3 23 C1.68 23 0.36 23 -1 23 C-1.33 16.73 -1.66 10.46 -2 4 C-4.31 4 -6.62 4 -9 4 C-11.48044315 7.72066472 -11.44381173 10.86540474 -11.625 15.1875 C-11.66367187 15.93708984 -11.70234375 16.68667969 -11.7421875 17.45898438 C-11.83628216 19.30559199 -11.91922319 21.1527619 -12 23 C-12.99 23 -13.98 23 -15 23 C-15 15.41 -15 7.82 -15 0 C-14.01 0 -13.02 0 -12 0 C-11.67 0.66 -11.34 1.32 -11 2 C-10.484375 1.484375 -9.96875 0.96875 -9.4375 0.4375 C-6.0289729 -1.57265701 -3.76893143 -0.79727396 0 0 Z " fill="#245D90" transform="translate(431,471)"/>
<path d="M0 0 C2.66796875 1.48046875 2.66796875 1.48046875 5 4 C5.61311187 6.93972578 5.4734686 9.76341331 5.3125 12.75 C5.28994141 13.54277344 5.26738281 14.33554687 5.24414062 15.15234375 C5.18540471 17.1023762 5.09572654 19.05143312 5 21 C5.99 21 6.98 21 8 21 C8 21.99 8 22.98 8 24 C7.236875 23.835 6.47375 23.67 5.6875 23.5 C2.96403764 22.90854604 2.96403764 22.90854604 0 23 C-0.33 23.33 -0.66 23.66 -1 24 C-8.45864662 24.36090226 -8.45864662 24.36090226 -12 22 C-12.9375 18.625 -12.9375 18.625 -13 15 C-11.6875 12.6875 -11.6875 12.6875 -9 11 C-5.69620366 10.09520444 -2.38810779 9.49140495 1 9 C1 7.35 1 5.7 1 4 C-3.54805635 3.82164485 -6.8794254 4.00214565 -11 6 C-11 5.01 -11 4.02 -11 3 C-7.38015875 0.12542018 -4.56886408 -0.66629268 0 0 Z " fill="#124F87" transform="translate(354,470)"/>
<path d="M0 0 C3.375 2 3.375 2 6 5 C6 7.64 6 10.28 6 13 C0.72 13 -4.56 13 -10 13 C-9.34 14.98 -8.68 16.96 -8 19 C-4.97562661 20.5121867 -2.33758466 20.17263369 1 20 C3.35369807 19.11935073 3.35369807 19.11935073 5 18 C5.33 18.66 5.66 19.32 6 20 C4.625 22 4.625 22 2 24 C-2.61151585 24.79667383 -6.59773778 24.98158356 -10.5 22.25 C-10.995 21.5075 -11.49 20.765 -12 20 C-12.4125 19.4225 -12.825 18.845 -13.25 18.25 C-14.39681487 14.8095554 -14.55995887 11.5509587 -14 8 C-12.36086596 4.83881292 -10.99730125 2.73135425 -8.125 0.625 C-5.14483554 -0.25151896 -3.10161374 -0.43422592 0 0 Z " fill="#19558B" transform="translate(403,470)"/>
<path d="M0 0 C2.1953125 1.484375 2.1953125 1.484375 4 4 C4.48371364 6.93358533 4.37775066 9.78716743 4.25 12.75 C4.23195313 13.54277344 4.21390625 14.33554687 4.1953125 15.15234375 C4.14833082 17.10208348 4.07659044 19.05119878 4 21 C4.99 21 5.98 21 7 21 C7 21.99 7 22.98 7 24 C5.35 23.67 3.7 23.34 2 23 C2 22.34 2 21.68 2 21 C1.505 21.495 1.01 21.99 0.5 22.5 C-3.22645843 24.73587506 -5.67911757 24.41151261 -10 24 C-12 22.9375 -12 22.9375 -13 21 C-13.65551601 14.88185053 -13.65551601 14.88185053 -11.80078125 12.38671875 C-9.55870727 10.66017588 -7.53610423 10.05530115 -4.8125 9.3125 C-3.46091797 8.93544922 -3.46091797 8.93544922 -2.08203125 8.55078125 C-1.39496094 8.36902344 -0.70789063 8.18726563 0 8 C-0.33 6.68 -0.66 5.36 -1 4 C-6.3086849 4.58174845 -6.3086849 4.58174845 -11 7 C-11.66 6.01 -12.32 5.02 -13 4 C-8.55003893 0.52685966 -5.67061228 -0.84009071 0 0 Z " fill="#17538A" transform="translate(304,470)"/>
<path d="M0 0 C2.38312703 1.89428046 3.6500559 3.30011179 5 6 C5 7.98 5 9.96 5 12 C-0.61 12 -6.22 12 -12 12 C-11.34 14.31 -10.68 16.62 -10 19 C-6.37 19 -2.74 19 1 19 C1 18.34 1 17.68 1 17 C1.99 17 2.98 17 4 17 C3.6875 18.875 3.6875 18.875 3 21 C-1.22583705 23.8172247 -5.03570016 23.67547031 -10 23 C-13.09799981 20.80873184 -13.80352112 19.58943664 -15 16 C-15.11792999 14.35720783 -15.17511674 12.70947306 -15.1875 11.0625 C-15.20167969 10.20785156 -15.21585938 9.35320312 -15.23046875 8.47265625 C-14.87591118 4.66867413 -13.7665669 2.65383647 -10.875 0.1875 C-6.99239312 -1.41618545 -3.98944586 -1.25191816 0 0 Z " fill="#17538A" transform="translate(214,471)"/>
<path d="M0 0 C2.3828125 0.515625 2.3828125 0.515625 5.5078125 2.578125 C7.3828125 5.515625 7.3828125 5.515625 7.3828125 12.515625 C2.1028125 12.515625 -3.1771875 12.515625 -8.6171875 12.515625 C-7.28800789 17.99387581 -7.28800789 17.99387581 -5.6171875 19.515625 C0.697811 19.93016213 0.697811 19.93016213 6.3828125 17.515625 C6.0703125 19.390625 6.0703125 19.390625 5.3828125 21.515625 C1.35966384 24.19772411 -1.88938669 24.20405915 -6.6171875 23.515625 C-10.11608754 21.40170623 -11.32297436 20.39826441 -12.6171875 16.515625 C-13.19462585 11.7228867 -13.54598591 7.02721491 -10.7421875 2.890625 C-6.9361745 -0.00194488 -4.68628046 -0.30775573 0 0 Z " fill="#145188" transform="translate(466.6171875,470.484375)"/>
<path d="M0 0 C1.32 0 2.64 0 4 0 C4.33 0.66 4.66 1.32 5 2 C5.66 1.34 6.32 0.68 7 0 C9.05859375 -0.30078125 9.05859375 -0.30078125 11.4375 -0.3125 C12.61119141 -0.33763672 12.61119141 -0.33763672 13.80859375 -0.36328125 C16.56863458 0.09426563 17.29244337 0.81319277 19 3 C19.34057617 5.17651367 19.34057617 5.17651367 19.29296875 7.66796875 C19.28330078 8.56064453 19.27363281 9.45332031 19.26367188 10.37304688 C19.23853516 11.30181641 19.21339844 12.23058594 19.1875 13.1875 C19.16719727 14.59805664 19.16719727 14.59805664 19.14648438 16.03710938 C19.11113096 18.35865038 19.06178674 20.67903653 19 23 C18.01 23 17.02 23 16 23 C15.93941406 21.71222656 15.87882812 20.42445313 15.81640625 19.09765625 C15.73201753 17.41925841 15.6473687 15.74087364 15.5625 14.0625 C15.52318359 13.21236328 15.48386719 12.36222656 15.44335938 11.48632812 C15.38051758 10.27299805 15.38051758 10.27299805 15.31640625 9.03515625 C15.27974854 8.2862915 15.24309082 7.53742676 15.20532227 6.76586914 C15.18228937 4.97538674 15.18228937 4.97538674 14 4 C10.54178598 3.74996036 10.54178598 3.74996036 7 4 C3.97906785 7.02093215 4.53323166 10.56372072 4.375 14.625 C4.33632813 15.42679687 4.29765625 16.22859375 4.2578125 17.0546875 C4.16346069 19.03607556 4.08063785 21.01800645 4 23 C2.68 23 1.36 23 0 23 C0 15.41 0 7.82 0 0 Z " fill="#104F87" transform="translate(316,471)"/>
<path d="M0 0 C0.99 0 1.98 0 3 0 C3 0.99 3 1.98 3 3 C3.66 3 4.32 3 5 3 C5 2.34 5 1.68 5 1 C7.31433022 -0.15716511 8.86060812 -0.23210436 11.4375 -0.3125 C12.21996094 -0.34988281 13.00242187 -0.38726562 13.80859375 -0.42578125 C16 0 16 0 17.7734375 1.41015625 C19.68325919 5.44267783 19.31414949 9.35298962 19.1875 13.75 C19.16719727 15.08224609 19.16719727 15.08224609 19.14648438 16.44140625 C19.11121309 18.62822578 19.06192752 20.81379966 19 23 C18.01 23 17.02 23 16 23 C15.96261719 21.72382813 15.92523438 20.44765625 15.88671875 19.1328125 C15.82107209 17.46351162 15.7546243 15.79424211 15.6875 14.125 C15.66494141 13.28324219 15.64238281 12.44148438 15.61914062 11.57421875 C15.58369141 10.76855469 15.54824219 9.96289062 15.51171875 9.1328125 C15.48553467 8.38918457 15.45935059 7.64555664 15.43237305 6.87939453 C15.13270409 4.59266174 15.13270409 4.59266174 12 3 C9.69 3.33 7.38 3.66 5 4 C4.67 10.27 4.34 16.54 4 23 C2.68 23 1.36 23 0 23 C0 15.41 0 7.82 0 0 Z " fill="#1B558B" transform="translate(480,471)"/>
<path d="M0 0 C1.98828125 0.65234375 1.98828125 0.65234375 3.98828125 3.65234375 C2.05078125 4.21484375 2.05078125 4.21484375 -0.01171875 4.65234375 C-0.34171875 4.32234375 -0.67171875 3.99234375 -1.01171875 3.65234375 C-3.01130239 3.61153592 -5.01217129 3.60980019 -7.01171875 3.65234375 C-7.34171875 4.97234375 -7.67171875 6.29234375 -8.01171875 7.65234375 C-7.32464844 7.90628906 -6.63757813 8.16023438 -5.9296875 8.421875 C-5.02863281 8.76605469 -4.12757813 9.11023438 -3.19921875 9.46484375 C-1.85923828 9.96951172 -1.85923828 9.96951172 -0.4921875 10.484375 C1.93914001 11.6292048 3.32852687 12.56148434 4.98828125 14.65234375 C5.5556611 17.81346004 5.25696528 19.20046606 3.61328125 21.96484375 C-0.3516513 24.51372896 -4.41431966 24.31240439 -9.01171875 23.65234375 C-10.00171875 22.99234375 -10.99171875 22.33234375 -12.01171875 21.65234375 C-12.01171875 20.33234375 -12.01171875 19.01234375 -12.01171875 17.65234375 C-11.51671875 17.98234375 -11.02171875 18.31234375 -10.51171875 18.65234375 C-6.92080981 20.08870733 -3.86715748 19.78085837 -0.01171875 19.65234375 C0.31828125 18.00234375 0.64828125 16.35234375 0.98828125 14.65234375 C0.385 14.554375 -0.21828125 14.45640625 -0.83984375 14.35546875 C-4.60644234 13.6507503 -7.41250557 13.07617747 -10.57421875 10.83984375 C-12.01171875 8.65234375 -12.01171875 8.65234375 -12.57421875 6.15234375 C-12.01171875 3.65234375 -12.01171875 3.65234375 -10.07421875 1.27734375 C-6.31413169 -0.71780449 -4.12440035 -0.50601887 0 0 Z " fill="#165289" transform="translate(189.01171875,470.34765625)"/>
<path d="M0 0 C2.375 1.375 2.375 1.375 4 3 C4 3.66 4 4.32 4 5 C0.7 4.67 -2.6 4.34 -6 4 C-6.33 5.32 -6.66 6.64 -7 8 C-6.30132812 8.26554687 -5.60265625 8.53109375 -4.8828125 8.8046875 C-3.51769531 9.33449219 -3.51769531 9.33449219 -2.125 9.875 C-0.76761719 10.39707031 -0.76761719 10.39707031 0.6171875 10.9296875 C3 12 3 12 5 14 C5.66574776 20.1026878 5.66574776 20.1026878 3.5625 22.9375 C-0.28150474 24.53135562 -3.89901369 24.58693015 -8 24 C-10.5625 22.5 -10.5625 22.5 -12 21 C-11.505 19.515 -11.505 19.515 -11 18 C-10.34 18 -9.68 18 -9 18 C-9 18.66 -9 19.32 -9 20 C-6.03 20 -3.06 20 0 20 C0.33 18.68 0.66 17.36 1 16 C0.30132812 15.73445313 -0.39734375 15.46890625 -1.1171875 15.1953125 C-2.02726563 14.84210938 -2.93734375 14.48890625 -3.875 14.125 C-4.77992188 13.77695312 -5.68484375 13.42890625 -6.6171875 13.0703125 C-9 12 -9 12 -11 10 C-11.4375 6.5625 -11.4375 6.5625 -11 3 C-7.58834258 -0.11062883 -4.51099239 -0.57587137 0 0 Z " fill="#145188" transform="translate(167,470)"/>
<path d="M0 0 C0.99 0 1.98 0 3 0 C3 1.65 3 3.3 3 5 C5.64 5 8.28 5 11 5 C11 5.66 11 6.32 11 7 C8.36 7 5.72 7 3 7 C3.33 12.94 3.66 18.88 4 25 C6.31 25 8.62 25 11 25 C10.67 25.99 10.34 26.98 10 28 C3.50467761 28.36765976 3.50467761 28.36765976 1.2878418 26.75268555 C-0.30953196 24.57874315 -0.34988641 23.44466137 -0.29296875 20.76953125 C-0.28330078 19.96708984 -0.27363281 19.16464844 -0.26367188 18.33789062 C-0.23853516 17.50451172 -0.21339844 16.67113281 -0.1875 15.8125 C-0.17396484 14.96751953 -0.16042969 14.12253906 -0.14648438 13.25195312 C-0.11115799 11.16769616 -0.05735139 9.08376723 0 7 C-1.32 7 -2.64 7 -4 7 C-4 6.34 -4 5.68 -4 5 C-2.68 5 -1.36 5 0 5 C0 3.35 0 1.7 0 0 Z " fill="#054782" transform="translate(508,466)"/>
<path d="M0 0 C0.99 0 1.98 0 3 0 C3 1.65 3 3.3 3 5 C5.64 5 8.28 5 11 5 C11 5.66 11 6.32 11 7 C8.36 7 5.72 7 3 7 C3.33 12.94 3.66 18.88 4 25 C6.31 25 8.62 25 11 25 C10.67 25.99 10.34 26.98 10 28 C3.50467761 28.36765976 3.50467761 28.36765976 1.2878418 26.75268555 C-0.30953196 24.57874315 -0.34988641 23.44466137 -0.29296875 20.76953125 C-0.28330078 19.96708984 -0.27363281 19.16464844 -0.26367188 18.33789062 C-0.23853516 17.50451172 -0.21339844 16.67113281 -0.1875 15.8125 C-0.17396484 14.96751953 -0.16042969 14.12253906 -0.14648438 13.25195312 C-0.11115799 11.16769616 -0.05735139 9.08376723 0 7 C-1.32 7 -2.64 7 -4 7 C-4 6.34 -4 5.68 -4 5 C-2.68 5 -1.36 5 0 5 C0 3.35 0 1.7 0 0 Z " fill="#054782" transform="translate(226,466)"/>
<path d="M0 0 C6.40882917 -0.48368522 6.40882917 -0.48368522 8.71875 1.40625 C10.7070705 5.43138662 10.31480546 9.33021564 10.1875 13.75 C10.17396484 14.63816406 10.16042969 15.52632813 10.14648438 16.44140625 C10.11121309 18.62822578 10.06192752 20.81379966 10 23 C8.68 23 7.36 23 6 23 C5.67 16.73 5.34 10.46 5 4 C3.02 3.34 1.04 2.68 -1 2 C-0.67 1.34 -0.34 0.68 0 0 Z " fill="#21598E" transform="translate(438,471)"/>
<path d="M0 0 C2.49936244 2.49936244 3.03723753 4.64808008 4.125 8 C4.47820312 9.0725 4.83140625 10.145 5.1953125 11.25 C6 14 6 14 6 16 C2.37 16 -1.26 16 -5 16 C-3.85388265 10.26941324 -2.47605477 5.28975338 0 0 Z " fill="#E1E8EF" transform="translate(138,467)"/>
<path d="M0 0 C0.99 0 1.98 0 3 0 C3 1.32 3 2.64 3 4 C3.66 4 4.32 4 5 4 C4.67 10.27 4.34 16.54 4 23 C2.68 23 1.36 23 0 23 C0 15.41 0 7.82 0 0 Z " fill="#21598E" transform="translate(316,471)"/>
<path d="M0 0 C3.96 0 7.92 0 12 0 C12.33 1.65 12.66 3.3 13 5 C10.00261059 6.99825961 9.36652492 7.27550398 6 7.25 C5.319375 7.25515625 4.63875 7.2603125 3.9375 7.265625 C2 7 2 7 -1 5 C-0.67 3.35 -0.34 1.7 0 0 Z " fill="#F3F5F8" transform="translate(369,494)"/>
<path d="M0 0 C3.625 0.375 3.625 0.375 7 1 C7.625 4.375 7.625 4.375 8 8 C6 10 6 10 3 10.25 C0 10 0 10 -2 8 C-2.25 5 -2.25 5 -2 2 C-1.34 1.34 -0.68 0.68 0 0 Z " fill="#EFF2F6" transform="translate(372,473)"/>
<path d="M0 0 C6.40882917 -0.48368522 6.40882917 -0.48368522 8.71875 1.40625 C10.7070705 5.43138662 10.31480546 9.33021564 10.1875 13.75 C10.17396484 14.63816406 10.16042969 15.52632813 10.14648438 16.44140625 C10.11121309 18.62822578 10.06192752 20.81379966 10 23 C9.01 23 8.02 23 7 23 C6.67 17.06 6.34 11.12 6 5 C3.69 4.01 1.38 3.02 -1 2 C-0.67 1.34 -0.34 0.68 0 0 Z " fill="#064882" transform="translate(489,471)"/>
<path d="M0 0 C-0.60220994 6.38342541 -0.60220994 6.38342541 -2.25 8.9375 C-4.64400485 10.39100294 -6.2500075 10.35256314 -9 10 C-11 8 -11 8 -11.3125 5.5 C-11.209375 4.675 -11.10625 3.85 -11 3 C-7.25593545 0.50395696 -4.45848315 0 0 0 Z " fill="#EBEFF4" transform="translate(356,482)"/>
<path d="M0 0 C-0.60220994 6.38342541 -0.60220994 6.38342541 -2.25 8.9375 C-4.64400485 10.39100294 -6.2500075 10.35256314 -9 10 C-11 8 -11 8 -11.3125 5.5 C-11.209375 4.675 -11.10625 3.85 -11 3 C-7.4144509 0.60963393 -4.2914923 0 0 0 Z " fill="#ECF0F5" transform="translate(305,482)"/>
<path d="M0 0 C0.99 0 1.98 0 3 0 C3 0.99 3 1.98 3 3 C3.66 3 4.32 3 5 3 C4.76228882 3.86963379 4.76228882 3.86963379 4.51977539 4.75683594 C3.71911382 8.21220398 3.62776918 11.71910303 3.4375 15.25 C3.39431641 15.99507813 3.35113281 16.74015625 3.30664062 17.5078125 C3.20103275 19.338349 3.10005799 21.16915176 3 23 C2.01 23 1.02 23 0 23 C0 15.41 0 7.82 0 0 Z " fill="#014580" transform="translate(416,471)"/>
<path d="M0 0 C3.0625 0.3125 3.0625 0.3125 4.9375 1.5625 C6.0625 3.3125 6.0625 3.3125 6.0625 7.3125 C2.1025 7.3125 -1.8575 7.3125 -5.9375 7.3125 C-4.57228261 0.48641304 -4.57228261 0.48641304 0 0 Z " fill="#F0F4F7" transform="translate(208.9375,472.6875)"/>
<path d="M0 0 C3.5 0.1875 3.5 0.1875 7 1 C9 4 9 4 9 7 C4.71 7 0.42 7 -4 7 C-2 2 -2 2 0 0 Z " fill="#F2F5F8" transform="translate(397,473)"/>
<path d="M0 0 C1.8125 1.25 1.8125 1.25 3 3 C3 4.32 3 5.64 3 7 C-0.96 7 -4.92 7 -9 7 C-8.67 5.35 -8.34 3.7 -8 2 C-4.76746204 -0.15502531 -3.74849077 -0.46856135 0 0 Z " fill="#F4F6F9" transform="translate(467,473)"/>
<path d="M0 0 C0.99 0.33 1.98 0.66 3 1 C2.67 1.99 2.34 2.98 2 4 C1.34 4 0.68 4 0 4 C0.66 5.98 1.32 7.96 2 10 C3.65 10.33 5.3 10.66 7 11 C7 11.66 7 12.32 7 13 C0.65492958 13.35915493 0.65492958 13.35915493 -1.9375 11.9375 C-3.6140629 8.88023824 -3.36528977 6.4093712 -3 3 C-1.5 1.0625 -1.5 1.0625 0 0 Z " fill="#0C4B85" transform="translate(294,481)"/>
<path d="M0 0 C1.43410153 3.78819273 0.51009497 6.06521279 -0.9375 9.75 C-1.31777344 10.73484375 -1.69804687 11.7196875 -2.08984375 12.734375 C-2.39019531 13.48203125 -2.69054687 14.2296875 -3 15 C-3.99 15 -4.98 15 -6 15 C-5.38851138 10.10809102 -4.20695378 5.42446714 -2 1 C-1.34 0.67 -0.68 0.34 0 0 Z " fill="#18538A" transform="translate(276,472)"/>
<path d="M0 0 C1.45945288 0.08708669 2.91765868 0.19526907 4.375 0.3125 C5.59316406 0.39951172 5.59316406 0.39951172 6.8359375 0.48828125 C9 1 9 1 11 4 C9.0625 4.5625 9.0625 4.5625 7 5 C6.67 4.67 6.34 4.34 6 4 C3.66702567 3.95907063 1.33294775 3.95758277 -1 4 C-0.67 2.68 -0.34 1.36 0 0 Z " fill="#225B8F" transform="translate(182,470)"/>
<path d="M0 0 C3.36704285 -0.2295711 5.41370268 -0.33943529 8.375 1.375 C8.91125 1.91125 9.4475 2.4475 10 3 C10 3.66 10 4.32 10 5 C8.35333797 4.8864371 6.70763918 4.75882619 5.0625 4.625 C3.68771484 4.52058594 3.68771484 4.52058594 2.28515625 4.4140625 C1.15400391 4.20910156 1.15400391 4.20910156 0 4 C-0.33 3.34 -0.66 2.68 -1 2 C-0.67 1.34 -0.34 0.68 0 0 Z " fill="#1F598E" transform="translate(161,470)"/>
<path d="M0 0 C0.33 0.66 0.66 1.32 1 2 C-1.97 2.66 -4.94 3.32 -8 4 C-7.67 2.68 -7.34 1.36 -7 0 C-2.25 -1.125 -2.25 -1.125 0 0 Z " fill="#1F588D" transform="translate(355,480)"/>
</svg>
